<svg width="172" height="172" viewBox="0 0 172 172" fill="none" xmlns="http://www.w3.org/2000/svg">
<g clip-path="url(#clip0_306_10)">
<path d="M136.154 54.8384C129.344 54.8369 122.536 54.8369 115.728 54.8384C113.396 54.8384 111.42 54.19 109.773 52.5226C108.275 51.0044 107.521 49.1194 107.514 46.8677C107.487 38.665 107.484 30.4827 107.505 22.3207C107.505 22.2514 107.47 22.2168 107.401 22.2168C88.3232 22.2349 69.2466 22.2251 50.1715 22.1874C49.4386 22.1859 48.7056 22.1709 47.9727 22.1422C42.8454 21.9419 38.8332 23.7531 35.9361 27.5758C34.5934 29.3448 33.5414 31.6086 33.2192 33.7617C33.0976 34.5765 33.036 35.8387 33.0345 37.5482C33.0045 69.0846 32.9872 100.62 32.9827 132.155C32.9827 132.818 32.825 133.313 32.5096 133.642C30.2193 136.038 27.9267 138.427 25.6318 140.81C25.5718 140.872 25.5117 140.871 25.4516 140.808C24.8329 140.151 24.2344 139.465 23.6561 138.75C14.9003 127.916 9.2383 115.721 6.67012 102.165C5.3973 95.4374 5.03685 87.8282 5.70368 80.8086C6.96674 67.5317 11.25 55.3459 18.5536 44.2514C20.9851 40.5583 23.6591 37.0873 26.5758 33.8385C26.6284 33.7798 26.6608 33.7053 26.6681 33.6261C27.2741 27.4922 30.7614 22.0202 35.8009 18.6178C40.2096 15.6423 45.747 14.5805 51.0163 15.2334C51.1139 15.2455 51.2423 15.2176 51.4015 15.1498C52.4348 14.701 53.4756 14.2695 54.5238 13.8553C72.0122 6.93512 91.0979 6.03367 108.965 12.1337C126.264 18.0417 140.72 29.6114 150.849 44.631C159.146 56.9395 163.57 71.5253 163.919 86.3506C163.955 87.8493 163.938 89.3547 163.867 90.8669C163.079 107.581 157.192 123.753 146.908 136.997C141.448 144.03 134.899 150.543 127.246 155.064C105.049 168.181 77.7929 170.208 53.8413 160.778C52.7464 160.347 51.7386 159.906 50.818 159.454C50.6123 159.353 50.5867 159.218 50.7414 159.049L57.0943 152.15C57.1376 152.103 57.1904 152.065 57.2494 152.04C57.3084 152.015 57.3722 152.002 57.4367 152.003C58.057 152.015 58.6953 152.02 59.3516 152.018C77.862 151.994 96.3724 151.981 114.883 151.978C117.543 151.976 120.152 151.497 122.711 150.541C129.017 148.182 134.836 142.188 135.978 135.417C136.136 134.482 136.223 132.98 136.239 130.912C136.259 128.371 136.269 125.83 136.269 123.287C136.269 100.512 136.272 77.7368 136.278 54.9604C136.278 54.879 136.236 54.8384 136.154 54.8384ZM114.166 28.5699L114.187 48.0515C114.187 48.1374 114.23 48.1803 114.317 48.1803H133.455C133.606 48.1803 133.629 48.1261 133.522 48.0176L114.223 28.5473C114.218 28.5426 114.212 28.5395 114.205 28.5381C114.198 28.5368 114.192 28.5374 114.186 28.5399C114.179 28.5423 114.174 28.5464 114.171 28.5518C114.168 28.5572 114.166 28.5634 114.166 28.5699Z" fill="#292524"/>
<path d="M123.412 71.8764C124.221 74.2092 122.592 76.3321 120.757 77.8706C120.654 77.9572 120.55 77.9597 120.444 77.8781C114.382 73.1777 108.55 68.21 102.674 63.3322C102.481 63.1723 102.313 62.9958 102.17 62.8027C102.122 62.7361 102.112 62.6661 102.141 62.5929C103.142 59.903 105.293 58.7466 108.464 59.2336C109.534 59.3985 110.504 59.8422 111.372 60.5648C114.681 63.3222 117.976 66.092 121.259 68.8743C122.31 69.7651 123.028 70.7658 123.412 71.8764Z" fill="#292524"/>
<path d="M82.1812 80.6023C72.731 73.6734 60.2566 70.1932 48.5485 70.5212C48.5099 70.5219 48.4716 70.5143 48.4364 70.4987C48.4012 70.4832 48.3699 70.4602 48.3449 70.4313L45.7187 67.4139C45.7056 67.3986 45.6962 67.3805 45.6913 67.361C45.6865 67.3416 45.6862 67.3213 45.6907 67.3017C45.6951 67.2822 45.704 67.2639 45.7168 67.2482C45.7296 67.2326 45.7459 67.2201 45.7645 67.2117C46.9906 66.6455 48.258 66.0052 49.4475 65.5356C62.057 60.5456 75.8033 60.6355 88.335 65.4211C90.2261 66.1445 92.1103 67.0402 93.9877 68.1082C94.0072 68.1191 94.0239 68.1343 94.0366 68.1526C94.0493 68.1708 94.0576 68.1916 94.0609 68.2135C94.0642 68.2353 94.0624 68.2576 94.0557 68.2787C94.0489 68.2997 94.0374 68.319 94.022 68.3351L82.3025 80.5934C82.2659 80.6323 82.2255 80.6353 82.1812 80.6023Z" fill="#292524"/>
<path d="M114.783 86.374C115.415 87.1353 116.054 87.8913 116.7 88.6419C121.531 94.2513 125.013 100.525 127.146 107.463C128.794 112.827 129.138 117.974 128.956 123.524C128.954 123.581 128.937 123.637 128.907 123.686C128.876 123.736 128.834 123.778 128.782 123.809L124.525 126.293C124.508 126.303 124.49 126.309 124.47 126.311C124.45 126.314 124.431 126.312 124.412 126.307C124.393 126.301 124.375 126.291 124.361 126.279C124.346 126.266 124.334 126.251 124.326 126.234C119.737 116.045 112.423 107.365 103.277 100.15C102.892 99.8448 102.701 99.8835 102.248 100.025C101.628 100.217 100.825 100.428 99.8373 100.657C99.8011 100.665 99.7631 100.665 99.7267 100.656C99.6903 100.647 99.6568 100.629 99.6291 100.605L83.333 85.9418C83.3172 85.9275 83.3101 85.9056 83.3132 85.881C83.3164 85.8564 83.3296 85.8309 83.35 85.8099L98.9272 69.9325C98.9999 69.8582 99.0749 69.8559 99.1523 69.9257C104.519 74.7708 109.895 79.6182 115.279 84.4678C115.476 84.6437 115.653 84.8348 115.809 85.0411C115.864 85.1139 115.853 85.1768 115.775 85.2299C115.386 85.4968 115.054 85.8152 114.778 86.1852C114.73 86.2504 114.731 86.3134 114.783 86.374Z" fill="#292524"/>
<path d="M42.5413 134.985C55.8589 120.471 69.1366 105.904 82.4431 91.3973C82.4494 91.3905 82.457 91.385 82.4654 91.3811C82.4739 91.3773 82.4829 91.3752 82.492 91.375C82.5011 91.3748 82.5101 91.3765 82.5184 91.3799C82.5268 91.3834 82.5343 91.3885 82.5405 91.3951L93.9578 102.61C94.0936 102.743 94.0973 102.88 93.9688 103.021C92.389 104.756 90.7729 106.536 89.1207 108.36C72.6271 126.571 56.1999 144.843 39.6333 162.984C38.3339 164.408 37.5388 165.228 37.2479 165.445C35.1727 166.985 32.0875 167.041 30.0211 165.477C29.9 165.385 29.2134 164.72 27.9613 163.483C25.8262 161.368 23.875 160.018 24.2294 156.51C24.4132 154.697 24.9735 153.826 26.2692 152.426C30.5748 147.776 36.8426 141.197 42.5413 134.985Z" fill="#292524"/>
</g>
<defs>
<clipPath id="clip0_306_10">
<rect width="172" height="172" fill="white"/>
</clipPath>
</defs>
</svg>
